<?xml version="1.0"?>
<svg xmlns="http://www.w3.org/2000/svg" xmlns:xlink="http://www.w3.org/1999/xlink" version="1.1" id="Layer_1" x="0px" y="0px" viewBox="0 0 512 512" style="enable-background:new 0 0 512 512;" xml:space="preserve" width="512px" height="512px" class=""><g><g>
	<path style="fill:#04B667" d="M256,221.867L256,221.867c-2.56,0-4.267-0.853-5.973-2.56l-34.133-34.133   c-3.413-3.413-3.413-8.533,0-11.947s8.533-3.413,11.947,0l28.16,28.16l28.16-28.16c3.413-3.413,8.533-3.413,11.947,0   s3.413,8.533,0,11.947l-34.133,34.133C260.267,221.013,257.707,221.867,256,221.867" data-original="#71C386" class="active-path" data-old_color="#04b667"/>
	<path style="fill:#04B667" d="M256,221.867c-5.12,0-8.533-3.413-8.533-8.533V93.867c0-5.12,3.413-8.533,8.533-8.533   c5.12,0,8.533,3.413,8.533,8.533v119.467C264.533,218.453,261.12,221.867,256,221.867" data-original="#71C386" class="active-path" data-old_color="#04b667"/>
	<path style="fill:#04B667" d="M213.333,264.533H179.2c-5.12,0-8.533-3.413-8.533-8.533V145.067c0-5.12,3.413-8.533,8.533-8.533   h34.133c5.12,0,8.533,3.413,8.533,8.533c0,5.12-3.413,8.533-8.533,8.533h-25.6v93.867h25.6c5.12,0,8.533,3.413,8.533,8.533   C221.867,261.12,218.453,264.533,213.333,264.533" data-original="#71C386" class="active-path" data-old_color="#04b667"/>
	<path style="fill:#04B667" d="M332.8,196.267c-5.12,0-8.533-3.413-8.533-8.533V153.6h-25.6c-5.12,0-8.533-3.413-8.533-8.533   c0-5.12,3.413-8.533,8.533-8.533H332.8c5.12,0,8.533,3.413,8.533,8.533v42.667C341.333,192.853,337.92,196.267,332.8,196.267" data-original="#71C386" class="active-path" data-old_color="#04b667"/>
</g><path style="fill:#556080;" d="M196.267,375.467H47.787C24.747,375.467,0,359.253,0,332.8V46.933C0,22.187,23.04,0,47.787,0h417.28  C489.813,0,512,22.187,512,46.933v243.2c0,5.12-3.413,8.533-8.533,8.533c-5.12,0-8.533-3.413-8.533-8.533v-243.2  c0-15.36-14.507-29.867-29.867-29.867H47.787c-15.36,0-30.72,14.507-30.72,29.867V332.8c0,15.36,16.213,25.6,30.72,25.6h148.48  c5.12,0,8.533,3.413,8.533,8.533S201.387,375.467,196.267,375.467" data-original="#556080"/><path style="fill:#FDC794;" d="M375.467,512L263.68,396.8c-40.107-40.107-40.107-104.96,0-145.067l0,0  c40.107-40.107,104.96-40.107,145.067,0L512,349.867V512H375.467z" data-original="#FDC794" class=""/><path style="fill:#FFE9EC;" d="M288.427,372.907l35.84,35.84c4.267,4.267,9.387,5.973,15.36,5.973  c46.933-3.413,83.627-40.107,87.04-87.04c0-5.973-1.707-11.093-5.973-15.36l-35.84-35.84c-26.453-26.453-69.973-26.453-96.427,0l0,0  C261.12,302.933,261.12,345.6,288.427,372.907" data-original="#FFE9EC"/><path style="fill:#FFFFFF;" d="M366.933,354.133c-16.213,16.213-24.747,40.96-34.987,58.88c2.56,0.853,5.12,1.707,8.533,0.853  c46.933-3.413,83.627-40.107,87.04-87.04c0-2.56,0-4.267-0.853-6.827h-0.853C407.04,331.093,383.147,337.067,366.933,354.133" data-original="#FFFFFF"/><path style="fill:#F9A671" d="M418.133,477.867c-2.56,0-4.267-0.853-5.973-2.56c-3.413-3.413-3.413-8.533,0-11.947l55.467-55.467  c3.413-3.413,8.533-3.413,11.947,0c3.413,3.413,3.413,8.533,0,11.947l-55.467,55.467C422.4,477.013,420.693,477.867,418.133,477.867  " data-original="#F9A671" class=""/></g> </svg>
