<?xml version="1.0" encoding="iso-8859-1"?>
<!-- Generator: Adobe Illustrator 19.0.0, SVG Export Plug-In . SVG Version: 6.00 Build 0)  -->
<svg version="1.1" id="Capa_1" xmlns="http://www.w3.org/2000/svg" xmlns:xlink="http://www.w3.org/1999/xlink" x="0px" y="0px"
	 viewBox="0 0 512.001 512.001" style="enable-background:new 0 0 512.001 512.001;" xml:space="preserve">
<path style="fill:#DCFEFF;" d="M255.999,343.537c-135.71,0-245.724-32.051-245.724-71.587v158.462
	c0,39.536,110.015,71.587,245.724,71.587s245.724-32.051,245.724-71.587V271.951C501.723,311.487,391.708,343.537,255.999,343.537z"
	/>
<path style="fill:#5377A2;" d="M311.386,419.552L311.386,419.552l-61.126-75.544l-55.321,68.371l-38.897,48.073
	c30.886,4.27,65.108,6.544,99.957,6.544c30.987,0,61.478-1.8,89.57-5.2L311.386,419.552z"/>
<path d="M255.999,476.998c-34.875,0-69.913-2.295-101.326-6.639c-3.573-0.494-6.604-2.874-7.932-6.229
	c-1.326-3.354-0.743-7.163,1.526-9.968l94.22-116.444c1.898-2.347,4.755-3.71,7.773-3.71l0,0c3.019,0,5.875,1.363,7.773,3.71
	l95.309,117.788c2.287,2.828,2.859,6.675,1.493,10.047s-4.455,5.734-8.066,6.172C317.865,475.224,287.325,476.998,255.999,476.998z
	 M175.151,452.732c25.72,2.8,53.321,4.264,80.847,4.264c24.043,0,47.591-1.07,70.242-3.187l-75.981-93.902L175.151,452.732z"/>
<rect x="152.268" y="129.478" style="fill:#FDB655;" width="51.033" height="58.074"/>
<rect x="203.301" y="129.478" style="fill:#6BECFE;" width="156.43" height="58.074"/>
<path style="fill:#5377A2;" d="M155.785,129.483h17.449v-26.821h87.562l26.287-21.723l29.145,21.723h22.534v26.821h19.773
	c3.127-13.181,5.062-29.673,3.036-48.452c-4.796-44.468-19.012-82.46-75.731-67.902c0,0-41.08,6.332-80.526,7.912
	c-0.621,0.025-1.25,0.059-1.889,0.102c-17.887,1.212-32.551,13.902-42.234,30.84c-13.422,23.482-15.107,51.897-5.524,77.191
	L155.785,129.483z"/>
<g>
	<polygon style="fill:#FFD8B9;" points="338.764,129.483 338.764,102.662 316.228,102.662 287.083,80.939 260.797,102.662 
		173.234,102.662 173.234,129.483 	"/>
	<path style="fill:#FFD8B9;" d="M338.131,187.558H173.866c4.077,32.963,27.543,59.908,58.632,69.1l-10.969,37.972l34.469,20.89
		l34.469-20.89l-10.969-37.972C310.588,247.465,334.053,220.521,338.131,187.558z"/>
</g>
<path d="M317.002,168.518c-0.65,0-1.31-0.06-1.95-0.19c-0.64-0.13-1.27-0.32-1.87-0.57c-0.61-0.25-1.19-0.56-1.73-0.92
	c-0.551-0.37-1.061-0.79-1.52-1.25c-1.86-1.86-2.93-4.44-2.93-7.07c0-0.65,0.069-1.31,0.2-1.95c0.13-0.64,0.319-1.27,0.569-1.87
	c0.25-0.61,0.561-1.19,0.92-1.73c0.36-0.55,0.78-1.06,1.24-1.52s0.97-0.88,1.52-1.24c0.54-0.36,1.119-0.67,1.73-0.92
	c0.601-0.25,1.23-0.441,1.87-0.57c1.29-0.26,2.61-0.26,3.91,0c0.63,0.13,1.26,0.32,1.87,0.57c0.6,0.25,1.18,0.559,1.72,0.92
	c0.55,0.36,1.06,0.78,1.52,1.24c0.461,0.46,0.881,0.97,1.25,1.52c0.36,0.54,0.671,1.12,0.921,1.73c0.25,0.6,0.44,1.23,0.569,1.87
	c0.13,0.64,0.19,1.3,0.19,1.95c0,2.63-1.07,5.21-2.931,7.07C322.213,167.448,319.642,168.518,317.002,168.518z"/>
<path style="fill:#FF5B70;" d="M255.999,343.537c50.685,0,97.782-4.472,136.906-12.134c-1.586-27.643-24.498-49.562-52.528-49.562
	h-53.602l3.694,12.789l-34.469,20.89l-34.469-20.89l3.694-12.789h-53.602c-28.031,0-50.942,21.919-52.528,49.562
	C158.216,339.066,205.313,343.537,255.999,343.537z"/>
<g>
	<path style="fill:#FDB655;" d="M58.926,229.188C28.37,241.12,10.275,255.919,10.275,271.95s18.096,30.83,48.651,42.762V229.188z"/>
	<path style="fill:#FDB655;" d="M453.072,229.188v85.524c30.556-11.932,48.651-26.731,48.651-42.762
		C501.723,255.919,483.627,241.12,453.072,229.188z"/>
</g>
<path d="M50.494,439.111c-2.162,0-4.338-0.697-6.17-2.136l-0.224-0.176c-2.511-1.972-3.823-4.905-3.823-7.868
	c-0.001-2.163,0.696-4.341,2.136-6.173c3.411-4.343,9.697-5.1,14.042-1.688l0.224,0.176c2.511,1.972,3.823,4.905,3.823,7.868
	c0.001,2.162-0.696,4.34-2.136,6.173C56.392,437.799,53.458,439.111,50.494,439.111z"/>
<polygon style="fill:#6BECFE;" points="244.115,408.769 267.72,426.128 291.33,408.769 311.386,419.552 250.261,344.008 
	194.94,412.38 220.509,426.128 "/>
<path style="fill:#5377A2;" d="M291.33,408.769l-23.609,17.358l-23.605-17.358l-23.604,17.358L194.94,412.38l-38.897,48.073
	c30.886,4.27,65.108,6.544,99.957,6.544c30.988,0,61.478-1.8,89.57-5.2l-34.182-42.245L291.33,408.769z"/>
<g>
	<path style="fill:#6BECFE;" d="M156.041,460.453l38.897-48.073l3.764-4.652l-28.161-24.179l-75.249,64.608
		c4.864,1.384,10.149,2.764,15.915,4.115c15.416,3.613,32.415,6.607,50.469,8.932C159.788,460.961,157.908,460.711,156.041,460.453z
		"/>
	<path style="fill:#6BECFE;" d="M341.454,369.675l-39.085,38.732l9.018,11.145l0,0l34.182,42.245
		c-3.465,0.419,35.527-4.909,55.218-9.525c6.992-1.639,13.297-3.319,18.972-4.999L341.454,369.675z"/>
</g>
<path d="M456.709,219.873c-3.078-1.201-6.55-0.806-9.279,1.057c-2.727,1.864-4.359,4.954-4.359,8.259v78.471
	c-11.949,4.277-25.974,8.279-41.901,11.798c-6.75-27.455-31.551-47.617-60.794-47.617h-46.081l-2.577-8.921
	c27.798-11.57,48.275-35.962,54.817-65.362h13.197c5.522,0,10.001-4.477,10.001-10.001v-58.075c0-0.933-0.137-1.831-0.376-2.688
	c3.12-15.411,3.853-31.141,2.16-46.837c-2.678-24.818-8.592-55.274-30.74-70.624c-14.313-9.918-33.457-11.943-56.922-6.017
	c-4.618,0.693-42.76,6.285-78.941,7.734c-0.711,0.029-1.432,0.068-2.164,0.117c-19.954,1.352-37.797,14.086-50.24,35.856
	c-13.378,23.404-16.493,51.223-8.922,77.502c-0.838,1.463-1.324,3.153-1.324,4.959v58.075c0,5.523,4.478,10.001,10.001,10.001
	h13.197c6.543,29.4,27.02,53.792,54.817,65.362l-2.577,8.921h-46.081c-29.245,0-54.044,20.162-60.794,47.617
	c-15.927-3.519-29.952-7.52-41.901-11.798V229.19c0-3.304-1.632-6.394-4.359-8.259c-2.729-1.863-6.2-2.258-9.279-1.057
	C18.786,234.13,0.275,251.651,0.275,271.952v158.462c0,24.308,27.378,45.131,79.175,60.221
	c47.294,13.778,109.994,21.366,176.55,21.366s129.256-7.588,176.55-21.366c51.797-15.09,79.175-35.914,79.175-60.221V271.951
	C511.724,251.65,493.213,234.128,456.709,219.873z M463.072,244.474c18.177,8.958,28.65,18.846,28.65,27.477
	c0,0.346-0.024,0.695-0.056,1.045c-0.012,0.122-0.025,0.245-0.041,0.368c-0.028,0.221-0.066,0.443-0.106,0.666
	c-0.073,0.392-0.16,0.785-0.273,1.181c-0.003,0.012-0.006,0.024-0.009,0.035c-1.506,5.204-6.471,10.746-14.335,16.185
	c-3.88,2.655-8.501,5.303-13.828,7.904v-54.861H463.072z M349.731,177.557L349.731,177.557H213.301v-9.037h70.514
	c5.522,0,10.001-4.477,10.001-10.001s-4.478-10.001-10.001-10.001h-70.514v-9.036h136.431l0,0V177.557z M328.763,119.482H183.234
	l0,0v-6.819h77.563c2.325,0,4.578-0.811,6.37-2.292l20.234-16.722l22.85,17.032c1.728,1.287,3.823,1.982,5.977,1.982h12.534
	L328.763,119.482L328.763,119.482z M169.875,56.947c5.22-9.133,16.608-24.632,34.224-25.826c0.547-0.037,1.086-0.066,1.617-0.087
	c39.556-1.584,79.949-7.759,81.65-8.022c0.324-0.05,0.646-0.116,0.963-0.197c18.064-4.637,31.492-3.669,41.055,2.957
	c11.924,8.264,18.993,26.164,22.247,56.331c1.35,12.515,0.933,25.055-1.236,37.379h-1.63v-16.82c0-5.523-4.478-10.001-10.001-10.001
	h-19.218l-26.485-19.741c-3.696-2.754-8.797-2.625-12.348,0.31L257.2,92.664h-83.965c-5.522,0-10.001,4.477-10.001,10.001v16.82
	h-0.279C156.697,98.232,159.119,75.766,169.875,56.947z M162.267,139.484L162.267,139.484H193.3v38.073h-31.033l0,0V139.484z
	 M186.09,197.558L186.09,197.558h139.819c-6.798,23.558-25.196,42.399-49.245,49.51c-5.273,1.559-8.298,7.082-6.772,12.366
	l7.272,25.173c0.001,0.004,0.001,0.007,0.002,0.011l1.569,5.43l-22.736,13.78l-22.736-13.78l1.569-5.43
	c0.001-0.004,0.001-0.007,0.002-0.011l7.272-25.173c1.525-5.282-1.499-10.807-6.771-12.366
	C211.286,239.957,192.889,221.118,186.09,197.558z M130.467,323.35c4.901-18.226,21.566-31.508,41.155-31.508h40.303l-0.003,0.012
	c-1.254,4.342,0.56,8.986,4.425,11.328l34.47,20.891c1.593,0.965,3.388,1.448,5.183,1.448c1.795,0,3.59-0.483,5.183-1.448
	l34.47-20.891c3.865-2.342,5.679-6.985,4.425-11.328l-0.003-0.012h40.302c19.585,0,36.251,13.284,41.155,31.508
	c-33.018,5.839-70.183,9.258-108.846,10.023c-0.021,0-0.043,0.001-0.064,0.001c-2.456,0.048-4.921,0.082-7.388,0.109
	c-0.44,0.005-0.877,0.011-1.319,0.015c-2.633,0.025-5.271,0.039-7.915,0.039s-5.282-0.014-7.915-0.039
	c-0.441-0.004-0.878-0.01-1.319-0.015c-2.467-0.027-4.932-0.061-7.388-0.109c-0.021,0-0.043-0.001-0.064-0.001
	C200.65,332.608,163.485,329.188,130.467,323.35z M318.037,454.525c-0.437,0.036-0.877,0.068-1.315,0.103
	c-2.043,0.163-4.095,0.316-6.152,0.462c-1.003,0.071-2.007,0.141-3.013,0.208c-1.735,0.116-3.476,0.225-5.22,0.329
	c-1.088,0.065-2.177,0.13-3.269,0.19c-1.855,0.103-3.717,0.197-5.581,0.286c-1.068,0.051-2.136,0.102-3.207,0.148
	c-2.002,0.087-4.01,0.167-6.022,0.238c-0.958,0.034-1.918,0.066-2.878,0.097c-2.178,0.07-4.36,0.133-6.548,0.184
	c-0.716,0.017-1.433,0.031-2.15,0.046c-2.433,0.051-4.869,0.094-7.314,0.123c-0.382,0.005-0.765,0.007-1.148,0.011
	c-2.733,0.028-5.471,0.046-8.217,0.046c-3.427,0-6.855-0.023-10.281-0.068c-0.04,0-0.081-0.001-0.121-0.002
	c-24.048-0.321-47.965-1.747-70.444-4.194l6.422-7.936l15.928-19.683l18.272,9.824c0.4,0.215,0.812,0.396,1.23,0.552
	c0.141,0.053,0.286,0.089,0.429,0.136c0.28,0.091,0.561,0.178,0.846,0.243c0.17,0.039,0.341,0.065,0.513,0.095
	c0.264,0.046,0.527,0.086,0.793,0.111c0.18,0.017,0.359,0.026,0.539,0.033c0.129,0.005,0.257,0.023,0.385,0.023
	c0.208,0,0.416-0.012,0.624-0.025c0.037-0.002,0.074-0.001,0.111-0.004c0.412-0.03,0.821-0.092,1.227-0.173
	c0.066-0.013,0.133-0.025,0.199-0.039c0.395-0.087,0.784-0.2,1.167-0.335c0.067-0.024,0.134-0.049,0.2-0.074
	c0.386-0.146,0.766-0.313,1.135-0.507c0.047-0.025,0.092-0.052,0.138-0.078c0.386-0.211,0.764-0.443,1.125-0.709l8.84-6.5l8.84-6.5
	l17.681,13.002c1.545,1.136,3.335,1.773,5.155,1.913c2.332,0.18,4.715-0.458,6.694-1.913l18.516-13.614l12.717,6.836l18.348,22.676
	l3.013,3.724c-0.108,0.01-0.217,0.02-0.326,0.03C323.301,454.081,320.675,454.31,318.037,454.525z M142.704,448.316
	c-0.083-0.014-0.167-0.027-0.25-0.041c-1.416-0.235-2.821-0.475-4.217-0.719c-0.108-0.019-0.217-0.037-0.324-0.056
	c-1.398-0.245-2.785-0.495-4.162-0.748c-0.089-0.016-0.178-0.032-0.267-0.048c-2.934-0.542-5.82-1.103-8.656-1.683
	c-0.045-0.009-0.089-0.019-0.134-0.028c-1.307-0.268-2.601-0.54-3.886-0.816c-0.499-0.107-0.992-0.217-1.488-0.326
	c-0.83-0.181-1.659-0.362-2.479-0.547c-0.143-0.032-0.284-0.065-0.427-0.098l54.13-46.476l14.276,12.258l-32.981,40.761
	c-1.549-0.23-3.086-0.464-4.613-0.704c-0.041-0.006-0.082-0.013-0.123-0.019C145.626,448.793,144.161,448.557,142.704,448.316z
	 M398.504,442.536c-9.859,2.311-26.254,5.176-48.761,8.522l-30.583-37.795l-3.33-4.115l25.623-25.392l58.876,58.344
	C399.72,442.245,399.125,442.39,398.504,442.536z M267.721,413.715l-17.682-13.002c-2.202-1.62-4.903-2.227-7.48-1.822
	c-1.546,0.243-3.048,0.85-4.37,1.822l-18.511,13.613l-9.372-5.038l39.954-49.379l33.811,41.786L267.721,413.715z M48.926,244.474
	v54.862c-5.328-2.601-9.949-5.249-13.829-7.904c-7.863-5.44-12.829-10.98-14.335-16.185c-0.003-0.012-0.006-0.024-0.009-0.035
	c-0.113-0.396-0.201-0.789-0.274-1.181c-0.04-0.222-0.079-0.445-0.106-0.666c-0.016-0.123-0.03-0.246-0.041-0.368
	c-0.032-0.35-0.056-0.698-0.056-1.045C20.275,263.32,30.748,253.432,48.926,244.474z M255.999,491.999
	c-146.046,0-235.724-35.87-235.724-61.586V305.469c5.755,4.372,12.749,8.536,20.966,12.482c0.14,0.068,0.28,0.136,0.421,0.203
	c0.842,0.402,1.699,0.8,2.567,1.197c0.396,0.182,0.787,0.365,1.189,0.547c0.29,0.13,0.59,0.258,0.882,0.388
	c2.841,1.264,5.812,2.5,8.908,3.71c0.027,0.01,0.053,0.021,0.08,0.032c0.003,0.001,0.006,0.002,0.009,0.003
	c7.348,2.869,15.392,5.588,24.152,8.141c40.548,11.814,92.425,19.07,148.342,20.902c0.325,0.011,0.65,0.021,0.975,0.031
	c0.413,0.013,0.825,0.028,1.239,0.04l-32.598,40.286l-20.348-17.471c-3.748-3.218-9.282-3.217-13.03,0l-71.124,61.068
	c-1.864-0.569-3.69-1.144-5.463-1.729c-5.247-1.73-10.901,1.118-12.631,6.363c-1.73,5.245,1.118,10.9,6.362,12.631
	c3.62,1.194,7.423,2.354,11.37,3.477c0.005,0.001,0.01,0.004,0.014,0.005c0.06,0.017,0.121,0.033,0.181,0.05
	c1.164,0.33,2.34,0.657,3.53,0.981c0.157,0.043,0.312,0.085,0.469,0.128c1.136,0.307,2.283,0.611,3.441,0.911
	c0.204,0.053,0.407,0.107,0.612,0.16c1.116,0.288,2.244,0.572,3.38,0.853c0.235,0.058,0.467,0.117,0.702,0.175
	c1.34,0.329,2.689,0.655,4.055,0.975c1.568,0.368,3.158,0.727,4.757,1.082c0.462,0.103,0.928,0.204,1.393,0.305
	c1.227,0.268,2.463,0.532,3.708,0.793c0.439,0.092,0.876,0.185,1.318,0.276c1.643,0.339,3.297,0.672,4.968,0.998
	c0.207,0.04,0.418,0.079,0.625,0.119c1.48,0.286,2.972,0.567,4.473,0.844c0.497,0.091,0.996,0.182,1.496,0.272
	c1.354,0.245,2.715,0.486,4.085,0.722c0.4,0.069,0.797,0.14,1.199,0.208c1.735,0.296,3.483,0.585,5.244,0.867
	c0.379,0.061,0.762,0.119,1.143,0.18c1.421,0.225,2.851,0.445,4.288,0.662c0.533,0.08,1.066,0.16,1.6,0.239
	c1.54,0.227,3.089,0.45,4.646,0.667c0.223,0.031,0.442,0.065,0.665,0.096c0.044,0.007,0.088,0.013,0.133,0.02
	c0.087,0.012,0.176,0.023,0.263,0.035c1.657,0.228,3.324,0.45,4.999,0.667c0.134,0.017,0.266,0.036,0.4,0.053
	c0.023,0.003,0.046,0.006,0.068,0.009c0.001,0,0.001,0.001,0.002,0.001c0.003,0,0.005,0,0.007,0c0.467,0.06,0.941,0.117,1.41,0.176
	c1.287,0.163,2.578,0.322,3.875,0.478c0.531,0.064,1.062,0.128,1.594,0.19c23.806,2.805,49.237,4.48,75.189,4.913
	c0.373,0.006,0.747,0.012,1.12,0.017c1.635,0.025,3.272,0.045,4.911,0.06c0.498,0.005,0.995,0.01,1.493,0.014
	c1.996,0.015,3.994,0.025,5.995,0.025c3.711,0,7.414-0.028,11.11-0.079c0.483-0.007,0.966-0.015,1.449-0.022
	c3.178-0.049,6.349-0.117,9.511-0.203c0.761-0.021,1.523-0.041,2.283-0.064c2.943-0.089,5.876-0.195,8.801-0.316
	c1.188-0.049,2.373-0.101,3.557-0.155c2.733-0.125,5.458-0.261,8.171-0.414c1.102-0.062,2.199-0.129,3.298-0.195
	c2.563-0.155,5.115-0.323,7.655-0.502c1.015-0.072,2.03-0.143,3.043-0.219c2.918-0.218,5.819-0.454,8.704-0.705
	c0.769-0.067,1.537-0.134,2.303-0.203c3.129-0.282,6.237-0.582,9.321-0.901c0.474-0.049,0.946-0.099,1.419-0.149
	c3.238-0.342,6.449-0.704,9.631-1.086c0.172-0.021,0.347-0.038,0.518-0.058c0.002,0,0.004-0.001,0.006-0.001
	c0.023-0.003,0.046-0.008,0.07-0.011c20.169-2.444,39.141-5.699,56.223-9.704c1.605-0.376,3.161-0.754,4.695-1.133
	c0.318-0.079,0.634-0.159,0.951-0.238c1.414-0.354,2.799-0.708,4.153-1.063c0.116-0.031,0.233-0.06,0.348-0.091
	c34.782-9.166,49.679-18.755,54.68-22.683c4.344-3.412,5.099-9.699,1.688-14.042c-3.411-4.343-9.7-5.099-14.042-1.688
	c-1.883,1.479-10.753,7.77-32.996,14.887l-74.055-73.386c-3.898-3.862-10.181-3.862-14.079,0l-31.228,30.947l-32.455-40.109
	c4.187-0.071,8.355-0.172,12.501-0.303c0.325-0.01,0.65-0.021,0.975-0.031c55.918-1.831,107.795-9.089,148.342-20.902
	c8.76-2.552,16.803-5.271,24.152-8.141c0.003-0.001,0.006-0.002,0.009-0.003c0.027-0.01,0.053-0.021,0.08-0.032
	c3.095-1.21,6.066-2.447,8.908-3.71c0.293-0.13,0.592-0.258,0.882-0.388c0.402-0.181,0.793-0.364,1.189-0.547
	c0.867-0.397,1.724-0.796,2.566-1.197c0.141-0.068,0.281-0.136,0.421-0.203c8.218-3.946,15.211-8.109,20.966-12.482v124.944
	C491.722,456.129,402.045,491.999,255.999,491.999z"/>
<g>
</g>
<g>
</g>
<g>
</g>
<g>
</g>
<g>
</g>
<g>
</g>
<g>
</g>
<g>
</g>
<g>
</g>
<g>
</g>
<g>
</g>
<g>
</g>
<g>
</g>
<g>
</g>
<g>
</g>
</svg>
