<?xml version="1.0" encoding="iso-8859-1"?>
<!-- Generator: Adobe Illustrator 19.0.0, SVG Export Plug-In . SVG Version: 6.00 Build 0)  -->
<svg version="1.1" id="Capa_1" xmlns="http://www.w3.org/2000/svg" xmlns:xlink="http://www.w3.org/1999/xlink" x="0px" y="0px"
	 viewBox="0 0 492.147 492.147" style="enable-background:new 0 0 492.147 492.147;" xml:space="preserve">
<path style="fill:#1185E0;" d="M440.424,0H172.931c-8.882,0-15.673,6.792-15.673,15.673v24.033H51.722
	c-8.882,0-15.673,6.792-15.673,15.673v233.535c0,6.792,4.18,12.539,10.971,14.629c1.567,0.522,3.135,1.045,4.702,1.045
	c4.702,0,9.404-2.09,12.539-6.269l53.812-72.098h196.441c8.882,0,15.673-6.792,15.673-15.673v-13.584h43.886l53.812,71.576
	c3.135,4.18,7.837,6.269,12.539,6.269c1.567,0,3.135,0,5.224-1.045c6.269-2.09,10.449-8.359,10.449-14.629V15.673
	C456.098,6.792,449.306,0,440.424,0z M298.841,194.873H110.237c-4.702,0-9.404,2.09-12.539,6.269l-30.302,40.751V71.053h231.445
	V194.873z M424.751,212.114l-30.302-40.229c-3.135-4.18-7.837-6.269-12.539-6.269h-51.722V55.38c0-8.882-6.792-15.673-15.673-15.673
	h-125.91v-8.359h236.147V212.114z"/>
<g>
	<path style="fill:#4DCFE0;" d="M366.237,397.584c-33.959,0-61.127-27.167-61.127-61.127s27.167-61.127,61.127-61.127
		s61.126,27.167,61.126,61.127S400.196,397.584,366.237,397.584z M366.237,306.678c-16.196,0-29.78,13.584-29.78,29.78
		c0,16.196,13.584,29.78,29.78,29.78c16.196,0,29.78-13.584,29.78-29.78S382.433,306.678,366.237,306.678z"/>
	<path style="fill:#4DCFE0;" d="M439.38,492.147H293.616c-8.882,0-15.673-6.792-15.673-15.673v-3.135
		c0-48.588,38.661-88.294,86.727-88.816h3.135c47.543,1.045,86.204,40.229,86.727,87.249l0.522,2.09
		c0.522,4.702-0.522,9.404-3.657,12.539C448.261,490.057,444.082,492.147,439.38,492.147z M310.857,460.8h111.282
		c-5.747-25.078-27.69-44.408-54.335-44.931h-2.612C338.547,416.392,316.082,435.2,310.857,460.8z"/>
</g>
<g>
	<path style="fill:#1185E0;" d="M125.91,397.584c-33.959,0-61.127-27.167-61.127-61.127s27.167-61.127,61.127-61.127
		s61.127,27.167,61.127,61.127S159.869,397.584,125.91,397.584z M125.91,306.678c-16.196,0-29.78,13.584-29.78,29.78
		c0,16.196,13.584,29.78,29.78,29.78s29.78-13.584,29.78-29.78S142.106,306.678,125.91,306.678z"/>
	<path style="fill:#1185E0;" d="M199.053,492.147H53.812c-8.882,0-15.673-6.792-15.673-15.673v-3.135
		c0-48.588,38.661-88.294,86.727-88.816H128c48.065,1.045,86.727,41.273,86.727,88.816v3.135
		C214.727,485.355,207.935,492.147,199.053,492.147z M71.053,460.8h111.282c-5.747-25.078-27.69-44.408-54.335-44.931h-2.612
		C98.743,416.392,76.278,435.2,71.053,460.8z"/>
</g>
<g>
	<path style="fill:#4DCFE0;" d="M178.155,127.478h-63.739c-8.882,0-15.673-6.792-15.673-15.673s6.792-15.673,15.673-15.673h63.739
		c8.882,0,15.673,6.792,15.673,15.673S187.037,127.478,178.155,127.478z"/>
	<path style="fill:#4DCFE0;" d="M255.478,171.363H114.416c-8.882,0-15.673-6.792-15.673-15.673c0-8.882,6.792-15.673,15.673-15.673
		h141.061c8.882,0,15.673,6.792,15.673,15.673C271.151,164.571,264.359,171.363,255.478,171.363z"/>
</g>
<g>
</g>
<g>
</g>
<g>
</g>
<g>
</g>
<g>
</g>
<g>
</g>
<g>
</g>
<g>
</g>
<g>
</g>
<g>
</g>
<g>
</g>
<g>
</g>
<g>
</g>
<g>
</g>
<g>
</g>
</svg>
