<?xml version="1.0" encoding="iso-8859-1"?>
<!-- Generator: Adobe Illustrator 19.0.0, SVG Export Plug-In . SVG Version: 6.00 Build 0)  -->
<svg version="1.1" id="Capa_1" xmlns="http://www.w3.org/2000/svg" xmlns:xlink="http://www.w3.org/1999/xlink" x="0px" y="0px"
	 viewBox="0 0 512 512" style="enable-background:new 0 0 512 512;" xml:space="preserve">
<path style="fill:#5377A2;" d="M474.313,256h-47.289v23.461h-35.283V256H120.259v23.461H84.976V256H37.687
	c-13.123,0-23.767,10.634-23.767,23.767v198.466C13.92,491.366,24.564,502,37.687,502h436.625c13.123,0,23.767-10.634,23.767-23.767
	V279.767C498.079,266.634,487.436,256,474.313,256z"/>
<path style="fill:#6BECFE;" d="M474.313,10H37.687C24.564,10,13.92,20.634,13.92,33.767v198.466
	C13.92,245.366,24.564,256,37.687,256h47.289v-23.461h35.283V256h271.482v-23.461h35.283V256h47.289
	c13.123,0,23.767-10.634,23.767-23.767V33.767C498.079,20.634,487.436,10,474.313,10z"/>
<rect x="115.05" y="307.68" style="fill:#DCFEFF;" width="281.9" height="142.64"/>
<path d="M396.953,460.32H115.047c-5.523,0-10-4.478-10-10V307.68c0-5.522,4.477-10,10-10h281.905c5.523,0,10,4.478,10,10v142.64
	C406.953,455.843,402.476,460.32,396.953,460.32z M125.047,440.32h261.905V317.68H125.047V440.32z"/>
<circle style="fill:#DCFEFF;" cx="62.27" cy="421.59" r="21.562"/>
<path d="M62.271,453.154c-17.403,0-31.562-14.158-31.562-31.561s14.159-31.563,31.562-31.563s31.561,14.159,31.561,31.563
	S79.674,453.154,62.271,453.154z M62.271,410.03c-6.376,0-11.562,5.186-11.562,11.563c0,6.375,5.186,11.561,11.562,11.561
	c6.375,0,11.561-5.186,11.561-11.561C73.833,415.217,68.646,410.03,62.271,410.03z"/>
<circle style="fill:#DCFEFF;" cx="449.73" cy="336.41" r="21.562"/>
<path d="M449.729,367.97c-17.403,0-31.562-14.159-31.562-31.563s14.159-31.561,31.562-31.561s31.561,14.158,31.561,31.561
	S467.132,367.97,449.729,367.97z M449.729,324.846c-6.376,0-11.562,5.186-11.562,11.561c0,6.376,5.186,11.563,11.562,11.563
	c6.375,0,11.561-5.186,11.561-11.563C461.29,330.032,456.104,324.846,449.729,324.846z"/>
<rect x="115.05" y="61.68" style="fill:#FDB655;" width="281.9" height="142.64"/>
<path d="M396.953,214.32H115.047c-5.523,0-10-4.477-10-10V61.68c0-5.522,4.477-10,10-10h281.905c5.523,0,10,4.478,10,10v142.64
	C406.953,209.843,402.476,214.32,396.953,214.32z M125.047,194.32h261.905V71.68H125.047V194.32z"/>
<circle style="fill:#FDB655;" cx="62.27" cy="175.59" r="21.562"/>
<path d="M62.271,207.154c-17.403,0-31.562-14.158-31.562-31.561s14.159-31.563,31.562-31.563s31.561,14.159,31.561,31.563
	S79.674,207.154,62.271,207.154z M62.271,164.03c-6.376,0-11.562,5.186-11.562,11.563c0,6.375,5.186,11.561,11.562,11.561
	c6.375,0,11.561-5.186,11.561-11.561C73.833,169.217,68.646,164.03,62.271,164.03z"/>
<circle style="fill:#FDB655;" cx="449.73" cy="90.41" r="21.562"/>
<path d="M449.729,121.97c-17.403,0-31.562-14.159-31.562-31.563s14.159-31.562,31.562-31.562s31.561,14.158,31.561,31.562
	S467.132,121.97,449.729,121.97z M449.729,78.846c-6.376,0-11.562,5.187-11.562,11.562c0,6.376,5.186,11.563,11.562,11.563
	c6.375,0,11.561-5.187,11.561-11.563S456.104,78.846,449.729,78.846z"/>
<g>
	<rect x="84.976" y="232.54" style="fill:#6BECFE;" width="35.28" height="46.922"/>
	<rect x="391.74" y="232.54" style="fill:#6BECFE;" width="35.28" height="46.922"/>
</g>
<path d="M508.08,33.767C508.08,15.148,492.932,0,474.313,0H37.688C19.068,0,3.92,15.148,3.92,33.767v198.466
	c0,9.261,3.749,17.661,9.807,23.767c-6.058,6.106-9.807,14.506-9.807,23.767v198.466C3.92,496.852,19.068,512,37.688,512h436.625
	c18.619,0,33.767-15.148,33.767-33.768V279.767c0-9.261-3.749-17.66-9.807-23.767c6.058-6.107,9.807-14.507,9.807-23.767V33.767z
	 M23.92,33.767C23.92,26.176,30.096,20,37.688,20h436.625c7.591,0,13.767,6.176,13.767,13.767v198.466
	c0,7.592-6.176,13.768-13.767,13.768h-37.289V232.54c0-5.522-4.477-10-10-10h-35.283c-5.523,0-10,4.478-10,10V246H130.259v-13.461
	c0-5.522-4.477-10-10-10H84.976c-5.523,0-10,4.478-10,10V246H37.688c-7.591,0-13.767-6.176-13.767-13.768L23.92,33.767L23.92,33.767
	z M401.741,269.461v-26.922h15.283v26.922l0,0H401.741L401.741,269.461z M94.976,269.461v-26.922h15.283v26.922l0,0H94.976
	L94.976,269.461z M488.08,478.232c0,7.592-6.176,13.768-13.767,13.768H37.688c-7.591,0-13.767-6.176-13.767-13.768V279.767
	c0-7.591,6.176-13.767,13.767-13.767h37.289v13.461c0,5.522,4.477,10,10,10h35.283c5.523,0,10-4.478,10-10V266h251.482v13.461
	c0,5.522,4.477,10,10,10h35.283c5.523,0,10-4.478,10-10V266h37.289c7.591,0,13.767,6.176,13.767,13.767v198.465H488.08z"/>
<path d="M77.299,329.675h-5.028v-5.028c0-5.523-4.477-10-10-10s-10,4.477-10,10v5.028h-5.028c-5.523,0-10,4.478-10,10
	s4.477,10,10,10h5.028v5.027c0,5.523,4.477,10,10,10s10-4.477,10-10v-5.027h5.028c5.523,0,10-4.478,10-10
	S82.822,329.675,77.299,329.675z"/>
<path d="M464.757,408.325h-5.028v-5.027c0-5.523-4.477-10-10-10s-10,4.477-10,10v5.027h-5.028c-5.523,0-10,4.478-10,10
	s4.477,10,10,10h5.028v5.028c0,5.523,4.477,10,10,10s10-4.477,10-10v-5.028h5.028c5.523,0,10-4.478,10-10
	S470.28,408.325,464.757,408.325z"/>
<path d="M47.243,103.675h5.028v5.027c0,5.522,4.477,10,10,10s10-4.478,10-10v-5.027h5.028c5.523,0,10-4.477,10-10
	c0-5.522-4.477-10-10-10h-5.028v-5.028c0-5.522-4.477-10-10-10s-10,4.478-10,10v5.028h-5.028c-5.523,0-10,4.478-10,10
	C37.243,99.197,41.72,103.675,47.243,103.675z"/>
<path d="M434.701,182.325h5.028v5.028c0,5.523,4.477,10,10,10s10-4.477,10-10v-5.028h5.028c5.523,0,10-4.477,10-10
	c0-5.522-4.477-10-10-10h-5.028v-5.027c0-5.522-4.477-10-10-10s-10,4.478-10,10v5.027h-5.028c-5.523,0-10,4.478-10,10
	C424.701,177.848,429.178,182.325,434.701,182.325z"/>
<path d="M343.56,428.33c-0.66,0-1.31-0.07-1.96-0.2c-0.64-0.13-1.27-0.32-1.87-0.57s-1.19-0.56-1.73-0.92
	c-0.54-0.37-1.06-0.78-1.52-1.24s-0.88-0.98-1.24-1.52c-0.36-0.55-0.67-1.13-0.92-1.73s-0.44-1.23-0.57-1.87
	c-0.13-0.64-0.2-1.3-0.2-1.949c0-0.66,0.07-1.311,0.2-1.96c0.13-0.641,0.32-1.27,0.57-1.87c0.25-0.601,0.56-1.181,0.92-1.73
	c0.36-0.54,0.78-1.06,1.24-1.52s0.98-0.87,1.52-1.24c0.54-0.36,1.13-0.67,1.73-0.92s1.23-0.44,1.87-0.57
	c3.25-0.649,6.7,0.41,9.03,2.73c0.46,0.46,0.87,0.979,1.24,1.52c0.36,0.55,0.67,1.13,0.92,1.73s0.44,1.229,0.57,1.87
	c0.13,0.649,0.19,1.3,0.19,1.96c0,0.649-0.06,1.309-0.19,1.949c-0.13,0.641-0.32,1.271-0.57,1.87c-0.25,0.601-0.56,1.181-0.92,1.73
	c-0.37,0.54-0.78,1.06-1.24,1.52C348.76,427.26,346.19,428.33,343.56,428.33z"/>
<path d="M309.669,428.325H168.446c-5.523,0-10-4.478-10-10s4.477-10,10-10H309.67c5.523,0,10,4.478,10,10
	S315.192,428.325,309.669,428.325z"/>
<g>
</g>
<g>
</g>
<g>
</g>
<g>
</g>
<g>
</g>
<g>
</g>
<g>
</g>
<g>
</g>
<g>
</g>
<g>
</g>
<g>
</g>
<g>
</g>
<g>
</g>
<g>
</g>
<g>
</g>
</svg>
