<?xml version="1.0" encoding="iso-8859-1"?>
<!-- Generator: Adobe Illustrator 19.0.0, SVG Export Plug-In . SVG Version: 6.00 Build 0)  -->
<svg version="1.1" id="Capa_1" xmlns="http://www.w3.org/2000/svg" xmlns:xlink="http://www.w3.org/1999/xlink" x="0px" y="0px"
	 viewBox="0 0 442.535 442.535" style="enable-background:new 0 0 442.535 442.535;" xml:space="preserve">
<path style="fill:#1185E0;" d="M149.737,327.073c-7.837,0-14.106-5.224-15.673-13.061c-17.241-98.22,20.898-196.963,96.653-250.775
	c3.657-2.612,8.882-3.657,13.061-2.612c4.702,1.045,8.359,4.18,10.449,8.882l10.971,23.51l14.106-44.931
	c0-0.522,0-0.522,0.522-1.045c2.612-6.792,7.837-12.016,14.629-14.629l84.637-31.347c5.224-2.09,10.971-1.045,15.673,2.612
	c4.18,3.657,6.269,9.404,5.747,14.629l-16.718,100.833C363.419,235.645,267.81,320.804,150.782,327.073
	C150.259,327.073,150.259,327.073,149.737,327.073z M234.374,100.853c-52.767,45.976-79.935,119.118-71.053,193.829
	c96.131-11.494,172.408-83.592,189.127-180.245l12.539-74.188l-55.902,20.898l-25.6,80.457c-2.09,6.269-7.314,10.449-14.106,10.971
	c-6.269,0.522-12.539-3.135-15.151-8.882L234.374,100.853z"/>
<path style="fill:#4DCFE0;" d="M57.786,442.535c-3.657,0-6.792-1.045-9.927-3.657c-6.792-5.224-7.837-15.151-2.612-21.943
	L220.79,195.939c5.224-6.792,15.151-7.837,21.943-2.612c6.792,5.224,7.837,15.151,2.612,21.943L69.802,436.788
	C67.19,440.445,62.488,442.535,57.786,442.535z"/>
<g>
</g>
<g>
</g>
<g>
</g>
<g>
</g>
<g>
</g>
<g>
</g>
<g>
</g>
<g>
</g>
<g>
</g>
<g>
</g>
<g>
</g>
<g>
</g>
<g>
</g>
<g>
</g>
<g>
</g>
</svg>
