<?xml version="1.0" encoding="iso-8859-1"?>
<!-- Generator: Adobe Illustrator 19.0.0, SVG Export Plug-In . SVG Version: 6.00 Build 0)  -->
<svg version="1.1" id="Capa_1" xmlns="http://www.w3.org/2000/svg" xmlns:xlink="http://www.w3.org/1999/xlink" x="0px" y="0px"
	 viewBox="0 0 512 512" style="enable-background:new 0 0 512 512;" xml:space="preserve">
<path style="fill:#5377A2;" d="M477.848,477.081H34.152C20.816,477.081,10,466.274,10,452.929v-221.6
	c0-13.346,10.816-24.152,24.152-24.152h443.696c13.336,0,24.152,10.806,24.152,24.152v221.6
	C502,466.274,491.184,477.081,477.848,477.081z"/>
<rect x="95.469" y="207.179" style="fill:#DCFEFF;" width="343.598" height="269.898"/>
<path style="fill:#6BECFE;" d="M301.306,207.177l102.02-102.02C368.482,62.331,315.385,34.92,256,34.92
	s-112.482,27.411-147.327,70.236l102.02,102.02L301.306,207.177L301.306,207.177z"/>
<path style="fill:#5377A2;" d="M301.306,207.177l58.869-58.869c-23.561-32.002-61.476-52.817-104.174-52.817
	s-80.614,20.815-104.174,52.817l58.869,58.869H301.306z"/>
<path style="fill:#6BECFE;" d="M301.306,207.177l15.137-15.137c-11.639-21.43-34.342-35.978-60.443-35.978
	s-48.804,14.548-60.443,35.978l15.137,15.137H301.306z"/>
<rect x="35.716" y="325.799" style="fill:#FF5B70;" width="32.654" height="32.653"/>
<path d="M68.37,368.455H35.716c-5.523,0-10-4.478-10-10v-32.653c0-5.522,4.477-10,10-10H68.37c5.523,0,10,4.478,10,10v32.653
	C78.37,363.977,73.893,368.455,68.37,368.455z M45.716,348.455H58.37v-12.653H45.716V348.455z"/>
<path d="M470.039,415.209c-0.66,0-1.31-0.07-1.96-0.2c-0.63-0.13-1.26-0.32-1.87-0.57c-0.6-0.25-1.18-0.56-1.72-0.92
	c-0.55-0.359-1.06-0.779-1.52-1.239c-0.46-0.461-0.88-0.98-1.25-1.521c-0.36-0.55-0.67-1.13-0.92-1.729
	c-0.25-0.601-0.44-1.23-0.57-1.87c-0.13-0.65-0.19-1.301-0.19-1.96c0-0.65,0.06-1.301,0.19-1.95c0.13-0.641,0.32-1.271,0.57-1.87
	c0.25-0.6,0.56-1.18,0.92-1.73c0.37-0.54,0.78-1.05,1.24-1.52c0.47-0.46,0.98-0.87,1.53-1.24c0.54-0.359,1.12-0.67,1.72-0.92
	c0.61-0.25,1.23-0.439,1.87-0.57c1.289-0.26,2.62-0.26,3.91,0c0.64,0.131,1.27,0.32,1.87,0.57s1.19,0.561,1.73,0.92
	c0.55,0.37,1.06,0.78,1.52,1.24c0.46,0.47,0.88,0.979,1.24,1.52c0.36,0.551,0.67,1.131,0.92,1.73c0.25,0.6,0.44,1.229,0.57,1.87
	c0.13,0.649,0.2,1.3,0.2,1.95c0,0.659-0.07,1.31-0.2,1.96c-0.13,0.64-0.32,1.269-0.57,1.87c-0.25,0.6-0.56,1.18-0.92,1.729
	c-0.36,0.54-0.78,1.06-1.24,1.521c-0.46,0.46-0.97,0.88-1.52,1.239c-0.54,0.36-1.13,0.67-1.73,0.92s-1.23,0.44-1.87,0.57
	C471.348,415.139,470.688,415.209,470.039,415.209z"/>
<path d="M470.035,376.789c-5.523,0-10-4.478-10-10v-87.737c0-5.523,4.477-10,10-10s10,4.477,10,10v87.737
	C480.035,372.311,475.558,376.789,470.035,376.789z"/>
<polygon style="fill:#FF5B70;" points="398.182,321.314 368.038,321.314 368.038,291.171 326.409,291.171 326.409,321.314 
	296.265,321.314 296.265,362.943 326.409,362.943 326.409,393.087 368.038,393.087 368.038,362.943 398.182,362.943 "/>
<path d="M368.039,403.086h-41.63c-5.523,0-10-4.478-10-10v-20.144h-20.143c-5.523,0-10-4.478-10-10v-41.63c0-5.522,4.477-10,10-10
	h20.143V291.17c0-5.522,4.477-10,10-10h41.63c5.523,0,10,4.478,10,10v20.143h20.143c5.523,0,10,4.478,10,10v41.63
	c0,5.522-4.477,10-10,10h-20.143v20.144C378.039,398.609,373.562,403.086,368.039,403.086z M336.409,383.086h21.63v-20.144
	c0-5.522,4.477-10,10-10h20.143v-21.63h-20.143c-5.523,0-10-4.478-10-10V301.17h-21.63v20.143c0,5.522-4.477,10-10,10h-20.143v21.63
	h20.143c5.523,0,10,4.478,10,10V383.086z"/>
<circle style="fill:#FDB655;" cx="186.889" cy="342.129" r="56.29"/>
<path d="M477.848,197.177h-152.4l84.949-84.95c3.625-3.626,3.921-9.405,0.686-13.383C372.858,51.865,316.332,24.92,256,24.92
	S139.142,51.865,100.916,98.845c-3.236,3.978-2.939,9.757,0.686,13.383l84.95,84.95h-152.4C15.32,197.177,0,212.498,0,231.329
	v221.599c0,18.832,15.32,34.152,34.152,34.152h443.696c18.832,0,34.152-15.32,34.152-34.152V231.329
	C512,212.498,496.68,197.177,477.848,197.177z M318.036,176.305c-14.785-18.911-37.558-30.242-62.036-30.242
	s-47.251,11.331-62.036,30.242l-28.77-28.77c22.593-26.47,55.937-42.043,90.805-42.043s68.213,15.573,90.805,42.043L318.036,176.305
	z M211.037,193.377l-2.79-2.791c10.957-15.285,28.663-24.523,47.754-24.523c19.091,0,36.797,9.238,47.754,24.523l-2.79,2.791
	l-3.8,3.8h-82.328L211.037,193.377z M256,44.92c51.29,0,99.527,21.649,133.717,59.703l-28.74,28.74
	C334.63,103.204,296.189,85.492,256,85.492s-78.631,17.712-104.977,47.871l-28.74-28.74C156.473,66.569,204.711,44.92,256,44.92z
	 M20,452.928V231.329c0-7.803,6.349-14.151,14.152-14.151h51.321v249.903H34.152C26.349,467.081,20,460.732,20,452.928z
	 M105.472,467.081V217.177h323.593V467.08H105.472V467.081z M492,452.928c0,7.804-6.349,14.152-14.152,14.152h-28.783V217.177
	h28.783c7.803,0,14.152,6.349,14.152,14.151V452.928z"/>
<path d="M186.885,275.841c-36.551,0-66.288,29.736-66.288,66.288s29.737,66.288,66.288,66.288s66.288-29.736,66.288-66.288
	S223.437,275.841,186.885,275.841z M196.885,387.316v-10.753c0-5.522-4.477-10-10-10c-5.523,0-10,4.478-10,10v10.753
	c-17.508-3.872-31.316-17.68-35.188-35.188h10.753c5.523,0,10-4.478,10-10s-4.477-10-10-10h-10.753
	c3.872-17.508,17.68-31.316,35.188-35.188v10.753c0,5.522,4.477,10,10,10c5.523,0,10-4.478,10-10v-10.753
	c17.508,3.872,31.316,17.68,35.188,35.188h-10.754c-5.523,0-10,4.478-10,10s4.477,10,10,10h10.754
	C228.201,369.636,214.393,383.444,196.885,387.316z"/>
<path d="M365.31,446.749c-0.65,0-1.31-0.07-1.95-0.2c-0.64-0.13-1.27-0.32-1.87-0.57c-0.61-0.25-1.19-0.56-1.73-0.92
	c-0.55-0.37-1.06-0.779-1.52-1.25c-0.46-0.46-0.88-0.97-1.24-1.51c-0.36-0.55-0.67-1.13-0.92-1.73s-0.45-1.229-0.57-1.869
	c-0.13-0.641-0.2-1.301-0.2-1.95c0-0.66,0.07-1.31,0.2-1.96c0.12-0.641,0.32-1.271,0.57-1.87c0.25-0.601,0.56-1.18,0.92-1.73
	c0.36-0.54,0.78-1.06,1.24-1.52c0.46-0.46,0.97-0.88,1.52-1.24c0.54-0.36,1.12-0.67,1.73-0.92c0.6-0.25,1.23-0.44,1.87-0.57
	c1.29-0.26,2.61-0.26,3.9,0c0.64,0.13,1.27,0.32,1.88,0.57c0.6,0.25,1.18,0.56,1.72,0.92c0.55,0.36,1.06,0.78,1.52,1.24
	s0.88,0.98,1.25,1.52c0.36,0.551,0.66,1.13,0.91,1.73s0.45,1.23,0.57,1.87c0.13,0.65,0.2,1.3,0.2,1.96c0,0.649-0.07,1.31-0.2,1.95
	c-0.12,0.64-0.32,1.27-0.57,1.869c-0.25,0.601-0.56,1.181-0.92,1.73c-0.36,0.54-0.78,1.05-1.24,1.51
	C370.52,445.679,367.939,446.749,365.31,446.749z"/>
<path d="M330.876,446.745H187.365c-5.523,0-10-4.478-10-10s4.477-10,10-10h143.511c5.523,0,10,4.478,10,10
	S336.399,446.745,330.876,446.745z"/>
<g>
</g>
<g>
</g>
<g>
</g>
<g>
</g>
<g>
</g>
<g>
</g>
<g>
</g>
<g>
</g>
<g>
</g>
<g>
</g>
<g>
</g>
<g>
</g>
<g>
</g>
<g>
</g>
<g>
</g>
</svg>
