<?xml version="1.0" encoding="iso-8859-1"?>
<!-- Generator: Adobe Illustrator 19.0.0, SVG Export Plug-In . SVG Version: 6.00 Build 0)  -->
<svg version="1.1" id="Capa_1" xmlns="http://www.w3.org/2000/svg" xmlns:xlink="http://www.w3.org/1999/xlink" x="0px" y="0px"
	 viewBox="0 0 463.412 463.412" style="enable-background:new 0 0 463.412 463.412;" xml:space="preserve">
<rect x="216.555" y="15.673" style="fill:#00BBD3;" width="31.347" height="68.441"/>
<g>
	<path style="fill:#1185E0;" d="M133.486,97.698h197.486c5.224,0,9.927-2.612,13.061-6.792s3.657-9.927,1.567-14.629
		C326.792,30.824,281.339,0,232.229,0s-94.563,30.824-113.371,76.278c-2.09,4.702-1.567,10.449,1.567,14.629
		C123.559,95.086,128.261,97.698,133.486,97.698z M232.229,31.347c28.212,0,54.857,13.584,71.576,35.004H160.653
		C177.371,44.931,204.016,31.347,232.229,31.347z"/>
	<path style="fill:#1185E0;" d="M428.669,427.363c0-82.024-57.469-150.988-134.792-168.229
		c19.331-17.763,34.482-42.318,43.886-65.829c2.09-4.702,1.567-10.449-1.567-14.629c-3.135-4.18-7.837-6.792-13.061-6.792H140.278
		c-5.224,0-9.927,2.612-13.061,6.792c-3.135,4.18-3.657,9.927-1.567,14.629c9.927,23.51,24.555,47.543,43.886,65.306
		C92.212,275.853,34.743,344.816,34.743,426.841v20.898c0,8.882,6.792,15.673,15.673,15.673h362.58c4.18,0,8.359-1.567,10.971-4.702
		c3.135-3.135,4.702-7.314,4.702-11.494L428.669,427.363z M165.878,203.233h132.18c-15.673,27.167-39.184,51.722-66.351,51.722
		C205.061,254.955,181.551,230.4,165.878,203.233z M66.612,432.588v-5.225c0-77.845,63.216-141.061,141.061-141.061h48.588
		c77.845,0,141.061,63.216,141.061,141.584v4.702H66.612z"/>
</g>
<path style="fill:#00BBD3;" d="M338.286,203.233H126.694c-17.763,0-31.347-13.584-31.347-31.347V97.698
	c0-17.763,13.584-31.347,31.347-31.347h211.592c17.763,0,31.347,13.584,31.347,31.347v74.188
	C369.633,189.649,356.049,203.233,338.286,203.233z M126.694,97.698L126.694,97.698v74.188h211.592V97.698H126.694z"/>
<g>
</g>
<g>
</g>
<g>
</g>
<g>
</g>
<g>
</g>
<g>
</g>
<g>
</g>
<g>
</g>
<g>
</g>
<g>
</g>
<g>
</g>
<g>
</g>
<g>
</g>
<g>
</g>
<g>
</g>
</svg>
