<?xml version="1.0" encoding="iso-8859-1"?>
<!-- Generator: Adobe Illustrator 19.0.0, SVG Export Plug-In . SVG Version: 6.00 Build 0)  -->
<svg version="1.1" id="Capa_1" xmlns="http://www.w3.org/2000/svg" xmlns:xlink="http://www.w3.org/1999/xlink" x="0px" y="0px"
	 viewBox="0 0 512 512" style="enable-background:new 0 0 512 512;" xml:space="preserve">
<rect x="151.81" y="84.63" style="fill:#FF5B70;" width="52.3" height="108.75"/>
<rect x="204.12" y="84.969" style="fill:#FDB655;" width="51.884" height="108.41"/>
<rect x="256" y="84.969" style="fill:#FF5B70;" width="52.3" height="108.41"/>
<rect x="308.3" y="84.969" style="fill:#FDB655;" width="51.884" height="108.41"/>
<path style="fill:#5377A2;" d="M44.761,235.497v149.755c0,23.26,18.856,42.117,42.117,42.117h101.93
	c11.331,0,22.185-4.566,30.108-12.667l25.294-25.86c6.469-6.613,17.111-6.613,23.58,0l25.294,25.86
	c7.923,8.101,18.777,12.667,30.108,12.667h101.93c23.26,0,42.117-18.856,42.117-42.117V235.497c0-23.26-18.856-42.117-42.117-42.117
	H86.878C63.617,193.381,44.761,212.237,44.761,235.497z"/>
<g>
	<rect x="467.24" y="251.13" style="fill:#6BECFE;" width="34.761" height="118.49"/>
	<rect x="10" y="251.13" style="fill:#6BECFE;" width="34.761" height="118.49"/>
</g>
<path style="fill:#DCFEFF;" d="M84.761,251.997v116.755c0,10.282,8.335,18.617,18.617,18.617h75.412
	c5.232,0,10.223-2.202,13.75-6.066l49.709-54.464c7.383-8.089,20.118-8.089,27.501,0l49.709,54.464
	c3.527,3.865,8.518,6.066,13.75,6.066h75.412c10.282,0,18.616-8.335,18.616-18.617V251.997c0-10.282-8.335-18.617-18.616-18.617
	H103.378C93.096,233.381,84.761,241.716,84.761,251.997z"/>
<path d="M502,241.131h-24.761v-5.634c0-28.737-23.379-52.116-52.116-52.116h-54.938V84.969c0-5.523-4.477-10.338-10-10.338h-208.37
	c-5.523,0-10,4.478-10,10v98.75H86.877c-28.737,0-52.116,23.379-52.116,52.116v5.634H10c-5.523,0-10,4.477-10,10v118.488
	c0,5.522,4.477,10,10,10h24.761v5.634c0,28.737,23.379,52.116,52.116,52.116h101.93c13.934,0,27.513-5.713,37.257-15.675
	l25.294-25.859c1.231-1.259,2.88-1.952,4.641-1.952c1.761,0,3.41,0.693,4.641,1.952l25.294,25.859
	c9.744,9.962,23.323,15.675,37.257,15.675h101.93c28.737,0,52.116-23.379,52.116-52.116v-5.634H502c5.523,0,10-4.478,10-10V251.131
	C512,245.608,507.523,241.131,502,241.131z M318.301,94.969h31.884v88.412h-31.884V94.969z M266,94.969h32.301v88.412H266V94.969z
	 M214.116,94.969H246v88.412h-31.884V94.969z M161.815,94.631h32.301v88.75h-32.301V94.631z M20,359.619v-98.488h14.761v98.488H20z
	 M457.239,385.253c0,17.709-14.407,32.116-32.116,32.116h-101.93c-8.586,0-16.955-3.521-22.96-9.659l-25.294-25.859
	c-5.026-5.139-11.751-7.968-18.939-7.968s-13.913,2.829-18.939,7.968l-25.293,25.859c-6.005,6.139-14.374,9.659-22.96,9.659H86.877
	c-17.709,0-32.116-14.407-32.116-32.116V235.497c0-17.709,14.407-32.116,32.116-32.116h338.245
	c17.709,0,32.116,14.407,32.116,32.116v149.756H457.239z M492,359.619h-14.761v-98.488H492V359.619z"/>
<path d="M408.622,223.381H103.378c-15.779,0-28.617,12.837-28.617,28.616v116.756c0,15.779,12.837,28.616,28.617,28.616h75.412
	c8.023,0,15.727-3.398,21.137-9.325l49.709-54.464c1.652-1.811,3.913-2.808,6.364-2.808c2.452,0,4.712,0.997,6.364,2.808
	l49.709,54.465c5.409,5.926,13.113,9.324,21.136,9.324h75.412c15.779,0,28.617-12.837,28.617-28.616V251.997
	C437.239,236.218,424.401,223.381,408.622,223.381z M417.239,368.753c0,4.751-3.865,8.616-8.617,8.616H333.21
	c-2.416,0-4.736-1.023-6.364-2.808l-49.709-54.464c-5.409-5.927-13.113-9.325-21.137-9.325s-15.727,3.398-21.137,9.325
	l-49.708,54.463c-1.629,1.785-3.949,2.809-6.365,2.809h-75.412c-4.751,0-8.617-3.865-8.617-8.616V251.997
	c0-4.751,3.865-8.616,8.617-8.616h305.244c4.751,0,8.617,3.865,8.617,8.616L417.239,368.753L417.239,368.753z"/>
<path d="M345.33,273.87c-0.65,0-1.3-0.06-1.95-0.19c-0.64-0.13-1.27-0.32-1.87-0.57s-1.18-0.56-1.73-0.92
	c-0.54-0.359-1.06-0.779-1.52-1.239c-0.46-0.471-0.88-0.98-1.24-1.521c-0.36-0.55-0.67-1.13-0.92-1.729
	c-0.25-0.601-0.44-1.23-0.57-1.87c-0.13-0.65-0.2-1.311-0.2-1.96c0-0.65,0.07-1.31,0.2-1.95c0.13-0.641,0.32-1.27,0.57-1.87
	s0.56-1.18,0.92-1.73c0.36-0.54,0.78-1.05,1.24-1.52c0.46-0.46,0.98-0.88,1.52-1.24c0.54-0.359,1.13-0.67,1.73-0.92
	s1.23-0.439,1.87-0.57c1.29-0.26,2.62-0.26,3.91,0c0.64,0.131,1.26,0.32,1.87,0.57c0.6,0.25,1.18,0.561,1.72,0.92
	c0.55,0.36,1.06,0.78,1.52,1.24c0.47,0.47,0.88,0.979,1.25,1.52c0.36,0.551,0.67,1.131,0.92,1.73s0.44,1.229,0.57,1.87
	c0.13,0.64,0.19,1.3,0.19,1.95c0,0.649-0.06,1.31-0.19,1.96c-0.13,0.64-0.32,1.27-0.57,1.87s-0.56,1.18-0.92,1.729
	c-0.37,0.54-0.78,1.05-1.25,1.521c-0.46,0.46-0.97,0.88-1.52,1.239c-0.54,0.36-1.12,0.67-1.72,0.92c-0.61,0.25-1.23,0.44-1.87,0.57
	C346.64,273.81,345.99,273.87,345.33,273.87z"/>
<path d="M310.76,273.875H166.667c-5.523,0-10-4.478-10-10s4.477-10,10-10H310.76c5.523,0,10,4.478,10,10
	S316.283,273.875,310.76,273.875z"/>
<g>
</g>
<g>
</g>
<g>
</g>
<g>
</g>
<g>
</g>
<g>
</g>
<g>
</g>
<g>
</g>
<g>
</g>
<g>
</g>
<g>
</g>
<g>
</g>
<g>
</g>
<g>
</g>
<g>
</g>
</svg>
