<?xml version="1.0" encoding="iso-8859-1"?>
<!-- Generator: Adobe Illustrator 19.0.0, SVG Export Plug-In . SVG Version: 6.00 Build 0)  -->
<svg version="1.1" id="Capa_1" xmlns="http://www.w3.org/2000/svg" xmlns:xlink="http://www.w3.org/1999/xlink" x="0px" y="0px"
	 viewBox="0 0 511.998 511.998" style="enable-background:new 0 0 511.998 511.998;" xml:space="preserve">
<path style="fill:#FFD8B9;" d="M501.707,200.426c-1.23-22.52-6.29-43.89-14.63-63.26c-5.44-12.67-12.29-24.5-20.36-35.23
	c-29.11-38.69-74.27-63.3-127.979-62.88c-62.613,0.489-111.863,23.745-138.591,68.404l28.162,7.214v0.004h104.929v22.488h153.839
	C495.417,156.536,500.477,177.906,501.707,200.426c0.14,2.73,0.24,5.47,0.27,8.23c0.06,4.9,0,9.75-0.19,14.55H333.238v22.489
	H228.286l-71.617,18.351l-10.779,26.151c-3.77,6.81,0.41,15.29,8.1,16.46l22.42,3.82v79c-0.34,8.22,6.19,15.02,15.03,15.02
	c1.42,0,75.13-6.18,75.39-6.51l0.18,74.96h141.049l-0.14-100.199c62.8-22.4,91.239-80.299,93.869-149.539
	c0.19-4.8,0.25-9.65,0.19-14.55C501.948,205.896,501.848,203.156,501.707,200.426z"/>
<path d="M303.801,402.958c-0.65,0-1.31-0.061-1.95-0.19c-0.64-0.13-1.27-0.319-1.88-0.569c-0.6-0.25-1.18-0.561-1.72-0.921
	c-0.55-0.359-1.06-0.779-1.52-1.239c-0.46-0.46-0.88-0.98-1.25-1.521c-0.359-0.54-0.67-1.13-0.92-1.729
	c-0.25-0.6-0.439-1.23-0.569-1.87c-0.131-0.641-0.19-1.3-0.19-1.95c0-0.66,0.06-1.31,0.19-1.96c0.13-0.64,0.319-1.27,0.569-1.87
	s0.561-1.18,0.92-1.729c0.37-0.54,0.79-1.051,1.25-1.511c0.46-0.47,0.971-0.88,1.52-1.25c0.54-0.359,1.12-0.67,1.72-0.92
	c0.61-0.25,1.24-0.439,1.88-0.569c1.28-0.261,2.61-0.261,3.9,0c0.64,0.13,1.27,0.319,1.87,0.569c0.609,0.25,1.189,0.561,1.729,0.92
	c0.55,0.37,1.061,0.78,1.521,1.25c0.46,0.46,0.88,0.971,1.239,1.511c0.36,0.55,0.671,1.13,0.921,1.729
	c0.25,0.601,0.439,1.23,0.569,1.87c0.13,0.65,0.2,1.3,0.2,1.96c0,0.65-0.07,1.31-0.2,1.95s-0.319,1.27-0.569,1.87
	s-0.561,1.189-0.921,1.729c-0.359,0.54-0.779,1.061-1.239,1.521c-0.46,0.46-0.971,0.88-1.521,1.239
	c-0.54,0.36-1.12,0.671-1.729,0.921c-0.601,0.25-1.23,0.439-1.87,0.569C305.11,402.897,304.451,402.958,303.801,402.958z"/>
<path style="fill:#FDB655;" d="M501.977,208.656c0.06,4.9,0,9.75-0.19,14.55H333.238v-86.039h153.839
	c8.34,19.37,13.4,40.74,14.63,63.26C501.848,203.156,501.948,205.896,501.977,208.656z"/>
<rect x="228.309" y="114.678" style="fill:#5377A2;" width="104.929" height="131.019"/>
<polygon style="fill:#6BECFE;" points="228.31,114.675 228.31,245.689 113.36,275.143 113.36,85.231 "/>
<polygon style="fill:#5377A2;" points="153.77,129.248 153.77,231.137 113.36,241.483 113.36,118.891 "/>
<path d="M511.976,208.549c-0.001-0.147-0.003-0.296-0.005-0.445c-0.033-2.532-0.125-5.217-0.278-8.192
	c0-0.01-0.001-0.021-0.001-0.03c-0.047-0.85-0.099-1.698-0.155-2.545c-1.506-22.512-6.641-44.071-15.271-64.115
	c-5.731-13.35-12.984-25.897-21.558-37.298c-15.778-20.969-35.375-37.461-58.246-49.018c-23.867-12.06-50.081-18.076-77.804-17.849
	c-32.934,0.258-62.225,6.533-87.059,18.651c-23.292,11.366-42.081,27.594-55.98,48.271l-79.66-20.406L12.766,45.911
	C7.462,44.393,1.918,47.452,0.392,52.76c-1.525,5.308,1.541,10.848,6.849,12.373l96.119,27.63l0,0v174.891l0,0L7.19,295.837
	c-5.3,1.554-8.337,7.109-6.784,12.409c1.278,4.361,5.267,7.19,9.592,7.19c0.932,0,1.879-0.132,2.817-0.406l103.187-30.24
	l23.815-6.102l-2.99,7.253c-3.049,5.939-3.119,12.996-0.161,19.011c3.042,6.185,8.912,10.506,15.715,11.575l14.027,2.391v70.379
	c-0.212,6.588,2.166,12.81,6.711,17.547c4.736,4.935,11.242,7.654,18.319,7.654c1.638,0,30.248-2.425,38.977-3.168
	c9.336-0.794,18.636-1.6,25.617-2.227c0.277-0.024,0.551-0.049,0.821-0.073l0.154,63.942c0.014,5.513,4.486,9.976,10,9.976h141.049
	c2.654,0,5.2-1.056,7.076-2.934c1.876-1.879,2.928-4.426,2.924-7.08l-0.13-93.313c57.673-23.622,90.915-78.726,93.852-156.019
	c0.147-3.713,0.22-7.523,0.22-11.362C512,211.01,511.992,209.781,511.976,208.549z M338.816,49.057
	c0.432-0.004,0.862-0.006,1.293-0.006c47.93,0,90.016,20.884,118.616,58.896c4.556,6.058,8.694,12.485,12.377,19.22H343.238v-12.488
	c0-5.522-4.478-10-10-10H229.586l-13.216-3.385C242.103,67.483,284.116,49.484,338.816,49.057z M238.309,170.186v-45.508h84.93l0,0
	v45.508H238.309z M323.238,190.186v45.509l0,0h-84.93v-45.509H323.238z M123.359,131.777l20.41,5.232v86.366l-20.41,5.226V131.777z
	 M123.359,262.257L123.359,262.257v-13.012l32.891-8.421c4.425-1.133,7.52-5.12,7.52-9.688V129.248c0-4.566-3.094-8.553-7.518-9.687
	l-32.893-8.43V98.116l94.949,24.321v115.491L123.359,262.257C123.356,262.258,123.362,262.256,123.359,262.257z M405.179,363.092
	l-68.594,13.394c-5.421,1.059-8.957,6.31-7.898,11.73c0.932,4.774,5.115,8.086,9.804,8.086c0.635,0,1.28-0.061,1.927-0.188
	l57.519-11.231l0.109,78.062H276.985l-0.156-64.985c-0.011-4.257-2.715-8.041-6.739-9.429c-1.693-0.584-3.464-0.689-5.145-0.368
	c-5.907,0.728-68.425,5.988-73.709,6.329c-1.493-0.044-2.796-0.572-3.686-1.499c-0.56-0.582-1.213-1.595-1.15-3.105
	c0.006-0.138,0.009-0.275,0.009-0.413v-79c0-4.875-3.515-9.039-8.32-9.857l-22.42-3.82c-0.059-0.011-0.117-0.02-0.176-0.029
	c-0.15-0.023-0.607-0.092-0.88-0.646c-0.271-0.55-0.048-0.951,0.025-1.084c0.185-0.334,0.351-0.679,0.496-1.032l8.87-21.518
	l65.545-16.795h103.689c5.522,0,10-4.478,10-10v-12.489h147.953C486.001,298.888,455.711,344.781,405.179,363.092z M343.238,213.206
	v-23.02h90.438c5.522,0,10-4.477,10-10s-4.478-10-10-10h-90.438v-23.02h137.119c6.518,16.919,10.336,34.981,11.364,53.793
	c0.147,2.868,0.231,5.42,0.257,7.819c0.001,0.075,0.002,0.149,0.002,0.224c0.017,1.405,0.022,2.808,0.018,4.203h-148.76V213.206z"/>
<path d="M468.25,190.188c-0.65,0-1.31-0.069-1.95-0.199c-0.64-0.131-1.27-0.32-1.88-0.57c-0.601-0.25-1.18-0.561-1.72-0.92
	c-0.551-0.36-1.061-0.78-1.52-1.24c-1.86-1.86-2.93-4.44-2.93-7.07c0-0.65,0.06-1.31,0.19-1.96c0.13-0.63,0.33-1.26,0.58-1.87
	c0.25-0.6,0.55-1.18,0.91-1.72c0.37-0.55,0.79-1.06,1.25-1.52c0.46-0.46,0.97-0.88,1.52-1.25c0.54-0.36,1.119-0.67,1.72-0.92
	c0.61-0.25,1.24-0.44,1.88-0.57c1.28-0.26,2.61-0.26,3.9,0c0.64,0.13,1.27,0.32,1.869,0.57c0.61,0.25,1.19,0.56,1.73,0.92
	c0.55,0.37,1.06,0.79,1.52,1.25c0.461,0.46,0.881,0.97,1.24,1.52c0.36,0.54,0.67,1.12,0.92,1.72c0.25,0.61,0.44,1.24,0.57,1.87
	c0.13,0.65,0.2,1.31,0.2,1.96c0,2.63-1.07,5.21-2.931,7.07c-0.46,0.46-0.97,0.88-1.52,1.24c-0.54,0.359-1.12,0.67-1.73,0.92
	c-0.6,0.25-1.229,0.439-1.869,0.57C469.559,190.119,468.899,190.188,468.25,190.188z"/>
<g>
</g>
<g>
</g>
<g>
</g>
<g>
</g>
<g>
</g>
<g>
</g>
<g>
</g>
<g>
</g>
<g>
</g>
<g>
</g>
<g>
</g>
<g>
</g>
<g>
</g>
<g>
</g>
<g>
</g>
</svg>
